<svg xmlns="http://www.w3.org/2000/svg" width="33.444" height="31.584" viewBox="0 0 33.444 31.584">
  <g id="Group_750" data-name="Group 750" transform="translate(-202.75 471.182)">
    <g id="Group_748" data-name="Group 748" transform="translate(203.5 -470.433)">
      <rect id="Rectangle_448" data-name="Rectangle 448" width="30.084" height="30.084" rx="6" transform="translate(1.86 30.084) rotate(-90)" fill="none" stroke="#0a0a0a" stroke-miterlimit="10" stroke-width="1.5"/>
      <line id="Line_48" data-name="Line 48" x2="2.735" transform="translate(0.036 19.145)" fill="none" stroke="#0a0a0a" stroke-linecap="round" stroke-linejoin="round" stroke-width="1.5"/>
      <line id="Line_49" data-name="Line 49" x2="3.287" transform="translate(0 10.856)" fill="none" stroke="#0a0a0a" stroke-linecap="round" stroke-linejoin="round" stroke-width="1.5"/>
    </g>
    <g id="Group_749" data-name="Group 749" transform="translate(213.966 -463.864)">
      <path id="Path_1455" data-name="Path 1455" d="M325.733-369.158c.051-.044.085-.07.115-.1a26.879,26.879,0,0,0,3.344-3.938,16.029,16.029,0,0,0,2.2-4.294,7.394,7.394,0,0,0,.338-3.379,6.05,6.05,0,0,0-6.907-5.059,6.064,6.064,0,0,0-5.055,6.9,10.819,10.819,0,0,0,1.016,3.22,22.46,22.46,0,0,0,3.592,5.207C324.813-370.109,325.276-369.641,325.733-369.158Z" transform="translate(-319.703 386)" fill="none" stroke="#0a0a0a" stroke-linecap="round" stroke-linejoin="round" stroke-width="1.5"/>
      <path id="Path_1456" data-name="Path 1456" d="M363.349-349.706a2.328,2.328,0,0,0,2.339-2.214,2.313,2.313,0,0,0-2.253-2.425,2.319,2.319,0,0,0-2.387,2.252A2.326,2.326,0,0,0,363.349-349.706Z" transform="translate(-357.323 357.197)" fill="none" stroke="#0a0a0a" stroke-linecap="round" stroke-linejoin="round" stroke-width="1.5"/>
    </g>
  </g>
</svg>
