<svg xmlns="http://www.w3.org/2000/svg" width="19.133" height="19.392" viewBox="0 0 19.133 19.392">
  <g id="Group_773" data-name="Group 773" transform="translate(-203.489 -217.479)" opacity="0.65">
    <path id="Path_1471" data-name="Path 1471" d="M332.863,441.556v-4.639a2.423,2.423,0,0,1,2.351-2.476h0a2.423,2.423,0,0,1,2.351,2.476v4.639" transform="translate(-122.157 -205.176)" fill="none" stroke="#fff" stroke-miterlimit="10" stroke-width="1"/>
    <path id="Path_1472" data-name="Path 1472" d="M213.054,236.371h6.123a1.61,1.61,0,0,0,1.562-1.645V224.413a.186.186,0,0,1,.181-.19h.648a.577.577,0,0,0,.287-1.057s-6.181-3.641-8.306-5.02a.9.9,0,0,0-.985,0c-1.837,1.205-8.307,5.017-8.307,5.017a.577.577,0,0,0,.287,1.057h.648a.186.186,0,0,1,.181.19v10.313a1.605,1.605,0,0,0,1.562,1.645h6.123" fill="none" stroke="#fff" stroke-miterlimit="10" stroke-width="1"/>
  </g>
</svg>
