<svg xmlns="http://www.w3.org/2000/svg" width="54.787" height="46.984" viewBox="0 0 54.787 46.984">
  <g id="Group_724" data-name="Group 724" transform="translate(-156 -263.228)">
    <g id="Group_64" data-name="Group 64" transform="translate(156 263.228)">
      <g id="Group_21" data-name="Group 21" transform="translate(0 0)">
        <path id="Path_30" data-name="Path 30" d="M-4657.583-4450.585h-17.466a17.294,17.294,0,0,1-5.4-.79,12.987,12.987,0,0,1-4.123-2.159,9.51,9.51,0,0,1-2.626-3.214,8.823,8.823,0,0,1-.914-3.966,9.273,9.273,0,0,1,.621-3.43,8.239,8.239,0,0,1,1.763-2.736,9.448,9.448,0,0,1,2.75-1.934,13.133,13.133,0,0,1,3.613-1.074V-4470a23.329,23.329,0,0,1-3.313-1.88,9.253,9.253,0,0,1-2.105-1.943,6.207,6.207,0,0,1-1.1-2.242,11.08,11.08,0,0,1-.31-2.765,7.256,7.256,0,0,1,.988-3.729,8.966,8.966,0,0,1,2.778-2.906,14.136,14.136,0,0,1,4.287-1.877,21.449,21.449,0,0,1,5.49-.659h15.069Zm-6.3-18.255h-6.6a20.263,20.263,0,0,0-5.327.323,8.084,8.084,0,0,0-3.359,1.994,8.8,8.8,0,0,0-1.756,2.733,9.527,9.527,0,0,0-.426,3.3,6.428,6.428,0,0,0,.685,2.861,7.9,7.9,0,0,0,1.9,2.458,7.643,7.643,0,0,0,3.33,1.746,29,29,0,0,0,4.755.1h6.8Zm0-16.678h-5.187a34,34,0,0,0-4.843.136,8.111,8.111,0,0,0-3.327,1.519,6.9,6.9,0,0,0-1.935,2.621,7.046,7.046,0,0,0-.623,2.98,7.7,7.7,0,0,0,.617,2.834,6,6,0,0,0,1.539,2.214,6.95,6.95,0,0,0,2.393,1.524,9.723,9.723,0,0,0,3.357.536h8.009Z" transform="translate(4688.115 4487.998)" fill="#fff"/>
      </g>
      <g id="Group_22" data-name="Group 22" transform="translate(30.537 37.365)">
        <path id="Path_31" data-name="Path 31" d="M-4356.682-4082.476l8.677-.012a2.659,2.659,0,0,1,.068.263,10.094,10.094,0,0,0,1.65,3.034,14.215,14.215,0,0,0,2.78,2.734,14.777,14.777,0,0,0,3.62,1.979,12.143,12.143,0,0,0,4.2.786l-.012.824a28.569,28.569,0,0,1-4.414-.285,23.433,23.433,0,0,1-4.248-.992,31.922,31.922,0,0,1-3.924-1.694,42.948,42.948,0,0,1-3.722-2.284,17.559,17.559,0,0,1-2.668-2.24,24.5,24.5,0,0,1-2.005-2.113" transform="translate(4356.682 4082.488)" fill="#fff"/>
      </g>
      <g id="Group_23" data-name="Group 23" transform="translate(24.261 16.852)">
        <path id="Path_32" data-name="Path 32" d="M-4400.872-4303.9a12.4,12.4,0,0,1,4.208,3.078,9.552,9.552,0,0,1,1.762,2.734,9.3,9.3,0,0,1,.621,3.433,8.809,8.809,0,0,1-.913,3.965,9.579,9.579,0,0,1-2.628,3.215,13.094,13.094,0,0,1-4.122,2.159,17.3,17.3,0,0,1-5.4.79h-17.461v-20.563h18.751A12.625,12.625,0,0,1-4400.872-4303.9Zm-17.646,16.636h6.8a28.8,28.8,0,0,0,4.754-.1,7.736,7.736,0,0,0,3.33-1.747,8.008,8.008,0,0,0,1.9-2.456,6.53,6.53,0,0,0,.684-2.864,9.54,9.54,0,0,0-.426-3.3,8.783,8.783,0,0,0-1.757-2.732,8.068,8.068,0,0,0-3.36-1.992,20.186,20.186,0,0,0-5.321-.325h-6.6Z" transform="translate(4424.809 4305.092)" fill="#fff"/>
      </g>
    </g>
  </g>
</svg>
