<svg xmlns="http://www.w3.org/2000/svg" width="27.023" height="27.066" viewBox="0 0 27.023 27.066">
  <g id="Group_752" data-name="Group 752" transform="translate(-1022.906 -522.259)">
    <path id="Path_1457" data-name="Path 1457" d="M1053.975,524.962V524.3a1.289,1.289,0,0,1,2.578,0l.008.664" transform="translate(-18.847)" fill="none" stroke="#0a0a0a" stroke-linecap="round" stroke-miterlimit="10" stroke-width="1.5"/>
    <path id="Path_1458" data-name="Path 1458" d="M1044.367,542.244v-6.4a7.95,7.95,0,1,0-15.9.1v6.99a.859.859,0,0,1-.859.859h-1.891a2.069,2.069,0,0,0-2.062,2.063h0a2.069,2.069,0,0,0,2.062,2.063h21.4a2.069,2.069,0,0,0,2.063-2.063h0a2.069,2.069,0,0,0-2.062-2.063h-1.891a.859.859,0,0,1-.859-.859Z" transform="translate(0 -3.036)" fill="none" stroke="#0a0a0a" stroke-linecap="round" stroke-miterlimit="10" stroke-width="1.5"/>
    <path id="Path_1459" data-name="Path 1459" d="M1054.821,580.861a4,4,0,0,1-7.967-.012" transform="translate(-14.42 -35.954)" fill="none" stroke="#0a0a0a" stroke-linecap="round" stroke-miterlimit="10" stroke-width="1.5"/>
  </g>
</svg>
